<?xml version="1.0" encoding="UTF-8" standalone="no"?>
<!DOCTYPE svg PUBLIC "-//W3C//DTD SVG 1.1//EN"
 "http://www.w3.org/Graphics/SVG/1.1/DTD/svg11.dtd">
<!-- Generated by graphviz version 13.1.1 (0)
 -->
<!-- Pages: 1 -->
<svg width="566pt" height="310pt"
 viewBox="0.00 0.00 566.00 310.00" xmlns="http://www.w3.org/2000/svg" xmlns:xlink="http://www.w3.org/1999/xlink">
<g id="graph0" class="graph" transform="scale(1 1) rotate(0) translate(4 305.5)">
<polygon fill="white" stroke="none" points="-4,4 -4,-305.5 562,-305.5 562,4 -4,4"/>
<!--  0 -->
<g id="node1" class="node">
<title> 0</title>
<ellipse fill="none" stroke="black" stroke-width="0" cx="289" cy="-283.5" rx="27" ry="18"/>
<text xml:space="preserve" text-anchor="middle" x="289" y="-278.45" font-family="Times New Roman,serif" font-size="14.00"> </text>
</g>
<!-- R11 -->
<g id="node2" class="node">
<title>R11</title>
<ellipse fill="none" stroke="black" stroke-width="0" cx="217" cy="-195" rx="27" ry="18"/>
<text xml:space="preserve" text-anchor="middle" x="217" y="-189.95" font-family="Times New Roman,serif" font-size="14.00">R</text>
</g>
<!--  0&#45;&gt;R11 -->
<g id="edge1" class="edge">
<title> 0&#45;&gt;R11</title>
<path fill="none" stroke="black" d="M276.79,-267.83C263.55,-251.92 242.54,-226.68 229.27,-210.75"/>
<text xml:space="preserve" text-anchor="middle" x="268.07" y="-234.2" font-family="Times New Roman,serif" font-size="14.00">3/5</text>
</g>
<!-- B11 -->
<g id="node3" class="node">
<title>B11</title>
<ellipse fill="none" stroke="black" stroke-width="0" cx="361" cy="-195" rx="27" ry="18"/>
<text xml:space="preserve" text-anchor="middle" x="361" y="-189.95" font-family="Times New Roman,serif" font-size="14.00">B</text>
</g>
<!--  0&#45;&gt;B11 -->
<g id="edge2" class="edge">
<title> 0&#45;&gt;B11</title>
<path fill="none" stroke="black" d="M301.21,-267.83C314.45,-251.92 335.46,-226.68 348.73,-210.75"/>
<text xml:space="preserve" text-anchor="middle" x="340.07" y="-234.2" font-family="Times New Roman,serif" font-size="14.00">2/5</text>
</g>
<!-- R21 -->
<g id="node4" class="node">
<title>R21</title>
<ellipse fill="none" stroke="black" stroke-width="0" cx="99" cy="-106.5" rx="27" ry="18"/>
<text xml:space="preserve" text-anchor="middle" x="99" y="-101.45" font-family="Times New Roman,serif" font-size="14.00">R</text>
</g>
<!-- R11&#45;&gt;R21 -->
<g id="edge3" class="edge">
<title>R11&#45;&gt;R21</title>
<path fill="none" stroke="black" d="M199.84,-181.42C177.47,-165.02 138.56,-136.5 116.18,-120.09"/>
<text xml:space="preserve" text-anchor="middle" x="177.19" y="-145.7" font-family="Times New Roman,serif" font-size="14.00">2/4</text>
</g>
<!-- B21 -->
<g id="node5" class="node">
<title>B21</title>
<ellipse fill="none" stroke="black" stroke-width="0" cx="217" cy="-106.5" rx="27" ry="18"/>
<text xml:space="preserve" text-anchor="middle" x="217" y="-101.45" font-family="Times New Roman,serif" font-size="14.00">B</text>
</g>
<!-- R11&#45;&gt;B21 -->
<g id="edge4" class="edge">
<title>R11&#45;&gt;B21</title>
<path fill="none" stroke="black" d="M217,-177.32C217,-162.1 217,-139.72 217,-124.42"/>
<text xml:space="preserve" text-anchor="middle" x="225.62" y="-145.7" font-family="Times New Roman,serif" font-size="14.00">2/4</text>
</g>
<!-- R22 -->
<g id="node6" class="node">
<title>R22</title>
<ellipse fill="none" stroke="black" stroke-width="0" cx="361" cy="-106.5" rx="27" ry="18"/>
<text xml:space="preserve" text-anchor="middle" x="361" y="-101.45" font-family="Times New Roman,serif" font-size="14.00">R</text>
</g>
<!-- B11&#45;&gt;R22 -->
<g id="edge5" class="edge">
<title>B11&#45;&gt;R22</title>
<path fill="none" stroke="black" d="M361,-177.32C361,-162.1 361,-139.72 361,-124.42"/>
<text xml:space="preserve" text-anchor="middle" x="369.62" y="-145.7" font-family="Times New Roman,serif" font-size="14.00">3/4</text>
</g>
<!-- B22 -->
<g id="node7" class="node">
<title>B22</title>
<ellipse fill="none" stroke="black" stroke-width="0" cx="459" cy="-106.5" rx="27" ry="18"/>
<text xml:space="preserve" text-anchor="middle" x="459" y="-101.45" font-family="Times New Roman,serif" font-size="14.00">B</text>
</g>
<!-- B11&#45;&gt;B22 -->
<g id="edge6" class="edge">
<title>B11&#45;&gt;B22</title>
<path fill="none" stroke="black" d="M376.31,-180.48C394.62,-164.33 425.07,-137.45 443.47,-121.21"/>
<text xml:space="preserve" text-anchor="middle" x="427.4" y="-145.7" font-family="Times New Roman,serif" font-size="14.00">1/4</text>
</g>
<!-- R31 -->
<g id="node8" class="node">
<title>R31</title>
<ellipse fill="none" stroke="black" stroke-width="0" cx="27" cy="-18" rx="27" ry="18"/>
<text xml:space="preserve" text-anchor="middle" x="27" y="-12.95" font-family="Times New Roman,serif" font-size="14.00">R</text>
</g>
<!-- R21&#45;&gt;R31 -->
<g id="edge7" class="edge">
<title>R21&#45;&gt;R31</title>
<path fill="none" stroke="black" d="M86.79,-90.83C73.55,-74.92 52.54,-49.68 39.27,-33.75"/>
<text xml:space="preserve" text-anchor="middle" x="78.07" y="-57.2" font-family="Times New Roman,serif" font-size="14.00">1/3</text>
</g>
<!-- B31 -->
<g id="node9" class="node">
<title>B31</title>
<ellipse fill="none" stroke="black" stroke-width="0" cx="99" cy="-18" rx="27" ry="18"/>
<text xml:space="preserve" text-anchor="middle" x="99" y="-12.95" font-family="Times New Roman,serif" font-size="14.00">B</text>
</g>
<!-- R21&#45;&gt;B31 -->
<g id="edge8" class="edge">
<title>R21&#45;&gt;B31</title>
<path fill="none" stroke="black" d="M99,-88.82C99,-73.6 99,-51.22 99,-35.92"/>
<text xml:space="preserve" text-anchor="middle" x="107.62" y="-57.2" font-family="Times New Roman,serif" font-size="14.00">2/3</text>
</g>
<!-- R32 -->
<g id="node10" class="node">
<title>R32</title>
<ellipse fill="none" stroke="black" stroke-width="0" cx="171" cy="-18" rx="27" ry="18"/>
<text xml:space="preserve" text-anchor="middle" x="171" y="-12.95" font-family="Times New Roman,serif" font-size="14.00">R</text>
</g>
<!-- B21&#45;&gt;R32 -->
<g id="edge9" class="edge">
<title>B21&#45;&gt;R32</title>
<path fill="none" stroke="black" d="M208.56,-89.63C200.31,-74.12 187.82,-50.63 179.54,-35.06"/>
<text xml:space="preserve" text-anchor="middle" x="206.75" y="-57.2" font-family="Times New Roman,serif" font-size="14.00">2/3</text>
</g>
<!-- B32 -->
<g id="node11" class="node">
<title>B32</title>
<ellipse fill="none" stroke="black" stroke-width="0" cx="243" cy="-18" rx="27" ry="18"/>
<text xml:space="preserve" text-anchor="middle" x="243" y="-12.95" font-family="Times New Roman,serif" font-size="14.00">B</text>
</g>
<!-- B21&#45;&gt;B32 -->
<g id="edge10" class="edge">
<title>B21&#45;&gt;B32</title>
<path fill="none" stroke="black" d="M222.01,-88.82C226.62,-73.5 233.4,-50.93 238,-35.63"/>
<text xml:space="preserve" text-anchor="middle" x="240.95" y="-57.2" font-family="Times New Roman,serif" font-size="14.00">1/3</text>
</g>
<!-- R33 -->
<g id="node12" class="node">
<title>R33</title>
<ellipse fill="none" stroke="black" stroke-width="0" cx="315" cy="-18" rx="27" ry="18"/>
<text xml:space="preserve" text-anchor="middle" x="315" y="-12.95" font-family="Times New Roman,serif" font-size="14.00">R</text>
</g>
<!-- R22&#45;&gt;R33 -->
<g id="edge11" class="edge">
<title>R22&#45;&gt;R33</title>
<path fill="none" stroke="black" d="M352.56,-89.63C344.31,-74.12 331.82,-50.63 323.54,-35.06"/>
<text xml:space="preserve" text-anchor="middle" x="350.75" y="-57.2" font-family="Times New Roman,serif" font-size="14.00">2/3</text>
</g>
<!-- B33 -->
<g id="node13" class="node">
<title>B33</title>
<ellipse fill="none" stroke="black" stroke-width="0" cx="387" cy="-18" rx="27" ry="18"/>
<text xml:space="preserve" text-anchor="middle" x="387" y="-12.95" font-family="Times New Roman,serif" font-size="14.00">B</text>
</g>
<!-- R22&#45;&gt;B33 -->
<g id="edge12" class="edge">
<title>R22&#45;&gt;B33</title>
<path fill="none" stroke="black" d="M366.01,-88.82C370.62,-73.5 377.4,-50.93 382,-35.63"/>
<text xml:space="preserve" text-anchor="middle" x="384.95" y="-57.2" font-family="Times New Roman,serif" font-size="14.00">1/3</text>
</g>
<!-- R34 -->
<g id="node14" class="node">
<title>R34</title>
<ellipse fill="none" stroke="black" stroke-width="0" cx="459" cy="-18" rx="27" ry="18"/>
<text xml:space="preserve" text-anchor="middle" x="459" y="-12.95" font-family="Times New Roman,serif" font-size="14.00">R</text>
</g>
<!-- B22&#45;&gt;R34 -->
<g id="edge13" class="edge">
<title>B22&#45;&gt;R34</title>
<path fill="none" stroke="black" d="M459,-88.82C459,-73.6 459,-51.22 459,-35.92"/>
<text xml:space="preserve" text-anchor="middle" x="467.62" y="-57.2" font-family="Times New Roman,serif" font-size="14.00">2/3</text>
</g>
<!-- B34 -->
<g id="node15" class="node">
<title>B34</title>
<ellipse fill="none" stroke="black" stroke-width="0" cx="531" cy="-18" rx="27" ry="18"/>
<text xml:space="preserve" text-anchor="middle" x="531" y="-12.95" font-family="Times New Roman,serif" font-size="14.00">B</text>
</g>
<!-- B22&#45;&gt;B34 -->
<g id="edge14" class="edge">
<title>B22&#45;&gt;B34</title>
<path fill="none" stroke="black" d="M471.21,-90.83C484.45,-74.92 505.46,-49.68 518.73,-33.75"/>
<text xml:space="preserve" text-anchor="middle" x="510.07" y="-57.2" font-family="Times New Roman,serif" font-size="14.00">1/3</text>
</g>
</g>
</svg>
